<?xml version="1.0" standalone="no"?>
<!DOCTYPE svg PUBLIC "-//W3C//DTD SVG 20010904//EN"
 "http://www.w3.org/TR/2001/REC-SVG-20010904/DTD/svg10.dtd">
<svg version="1.0" xmlns="http://www.w3.org/2000/svg"
 width="700.000000pt" height="700.000000pt" viewBox="0 0 700.000000 700.000000"
 preserveAspectRatio="xMidYMid meet">
<metadata>
Created by potrace 1.14, written by Peter Selinger 2001-2017
</metadata>
<g transform="translate(0.000000,700.000000) scale(0.100000,-0.100000)"
fill="#000000" stroke="none">
<path d="M1619 5136 c-2 -2 -26 -7 -54 -10 -532 -58 -1038 -412 -1278 -892
-86 -172 -146 -365 -166 -535 -10 -86 -7 -366 4 -429 48 -267 120 -457 250
-656 225 -346 589 -604 990 -703 44 -10 100 -23 125 -27 25 -4 56 -9 70 -11
55 -9 339 -11 405 -2 121 15 150 20 167 25 9 3 25 7 37 9 32 6 172 46 200 57
14 6 35 14 46 18 202 80 388 191 574 340 143 115 176 174 176 310 -1 69 -5 94
-25 135 -66 134 -213 208 -357 179 -77 -16 -102 -29 -188 -99 -341 -280 -703
-383 -1057 -301 -72 17 -183 58 -238 89 -19 11 -44 25 -55 31 -65 37 -109 71
-190 151 -313 307 -379 792 -159 1168 247 423 767 607 1234 436 127 -47 290
-143 425 -252 84 -68 266 -256 353 -364 93 -118 238 -333 278 -413 101 -204
305 -503 486 -715 188 -220 473 -458 698 -583 166 -93 390 -177 525 -198 22
-3 43 -8 46 -10 30 -18 388 -26 504 -11 202 27 424 102 606 204 81 45 212 136
262 181 149 136 262 268 339 397 119 200 197 417 225 631 9 72 10 362 0 424
-6 42 -25 142 -31 165 -2 6 -6 24 -10 40 -19 80 -75 221 -128 325 -230 451
-654 767 -1168 870 -93 19 -149 24 -290 24 -96 1 -201 -2 -234 -6 -78 -10
-286 -57 -311 -71 -11 -6 -20 -9 -20 -8 0 1 -13 -2 -28 -8 -16 -6 -32 -11 -36
-11 -11 0 -103 -41 -200 -88 -116 -57 -230 -127 -343 -212 -206 -154 -243
-208 -243 -355 1 -106 23 -164 90 -231 67 -67 124 -89 230 -89 108 0 146 15
250 99 261 212 548 328 810 328 224 1 402 -53 584 -175 267 -179 431 -480 433
-796 1 -206 -47 -369 -163 -547 -54 -82 -178 -212 -247 -256 -23 -16 -59 -39
-79 -53 -21 -13 -72 -38 -113 -55 -296 -122 -595 -110 -880 35 -106 54 -112
57 -215 130 -120 85 -332 292 -444 434 -105 132 -202 277 -275 411 -119 216
-233 394 -354 550 -36 47 -69 87 -72 90 -3 3 -27 32 -54 65 -82 100 -307 316
-415 399 -83 63 -200 141 -311 206 -113 66 -350 155 -490 184 -41 8 -88 18
-105 21 -33 7 -390 17 -396 11z"/>
</g>
</svg>
